<mxfile host="app.diagrams.net" modified="2023-09-12T08:24:52.477Z" agent="Mozilla/5.0 (Windows NT 10.0; Win64; x64; rv:109.0) Gecko/20100101 Firefox/117.0" etag="hpyzMxOs4AjdrFMuSMZw" version="21.7.2" type="device">
  <diagram id="R2lEEEUBdFMjLlhIrx00" name="Page-1">
    <mxGraphModel dx="875" dy="472" grid="1" gridSize="10" guides="1" tooltips="1" connect="1" arrows="1" fold="1" page="1" pageScale="1" pageWidth="850" pageHeight="1100" math="0" shadow="0" extFonts="Permanent Marker^https://fonts.googleapis.com/css?family=Permanent+Marker">
      <root>
        <mxCell id="0" />
        <mxCell id="1" parent="0" />
        <mxCell id="9QcQ70fL6jkOLKUowUA8-16" style="rounded=0;orthogonalLoop=1;jettySize=auto;html=1;exitX=0;exitY=0;exitDx=0;exitDy=0;entryX=0.5;entryY=1;entryDx=0;entryDy=0;endArrow=none;endFill=0;" parent="1" source="9QcQ70fL6jkOLKUowUA8-1" target="9QcQ70fL6jkOLKUowUA8-7" edge="1">
          <mxGeometry relative="1" as="geometry" />
        </mxCell>
        <mxCell id="9QcQ70fL6jkOLKUowUA8-17" style="rounded=0;orthogonalLoop=1;jettySize=auto;html=1;exitX=0;exitY=0.25;exitDx=0;exitDy=0;entryX=1;entryY=0.5;entryDx=0;entryDy=0;endArrow=none;endFill=0;" parent="1" source="9QcQ70fL6jkOLKUowUA8-1" target="9QcQ70fL6jkOLKUowUA8-11" edge="1">
          <mxGeometry relative="1" as="geometry" />
        </mxCell>
        <mxCell id="9QcQ70fL6jkOLKUowUA8-18" style="rounded=0;orthogonalLoop=1;jettySize=auto;html=1;exitX=0;exitY=0.75;exitDx=0;exitDy=0;entryX=1;entryY=0.5;entryDx=0;entryDy=0;endArrow=none;endFill=0;" parent="1" source="9QcQ70fL6jkOLKUowUA8-1" target="9QcQ70fL6jkOLKUowUA8-10" edge="1">
          <mxGeometry relative="1" as="geometry" />
        </mxCell>
        <mxCell id="9QcQ70fL6jkOLKUowUA8-19" style="rounded=0;orthogonalLoop=1;jettySize=auto;html=1;exitX=0;exitY=1;exitDx=0;exitDy=0;entryX=0.5;entryY=0;entryDx=0;entryDy=0;endArrow=none;endFill=0;" parent="1" source="9QcQ70fL6jkOLKUowUA8-1" target="9QcQ70fL6jkOLKUowUA8-8" edge="1">
          <mxGeometry relative="1" as="geometry" />
        </mxCell>
        <mxCell id="9QcQ70fL6jkOLKUowUA8-20" style="rounded=0;orthogonalLoop=1;jettySize=auto;html=1;exitX=0.5;exitY=0;exitDx=0;exitDy=0;entryX=0.5;entryY=0;entryDx=0;entryDy=0;endArrow=none;endFill=0;" parent="1" source="9QcQ70fL6jkOLKUowUA8-1" target="9QcQ70fL6jkOLKUowUA8-13" edge="1">
          <mxGeometry relative="1" as="geometry" />
        </mxCell>
        <mxCell id="pOBG8HlV1VO0ge_HTlpR-14" style="rounded=0;orthogonalLoop=1;jettySize=auto;html=1;exitX=0.25;exitY=1;exitDx=0;exitDy=0;entryX=0;entryY=1;entryDx=0;entryDy=0;endArrow=none;endFill=0;" edge="1" parent="1" source="9QcQ70fL6jkOLKUowUA8-1" target="pOBG8HlV1VO0ge_HTlpR-13">
          <mxGeometry relative="1" as="geometry" />
        </mxCell>
        <mxCell id="9QcQ70fL6jkOLKUowUA8-1" value="User" style="whiteSpace=wrap;html=1;align=center;" parent="1" vertex="1">
          <mxGeometry x="260" y="217.5" width="100" height="40" as="geometry" />
        </mxCell>
        <mxCell id="9QcQ70fL6jkOLKUowUA8-37" style="rounded=0;orthogonalLoop=1;jettySize=auto;html=1;exitX=0.25;exitY=0;exitDx=0;exitDy=0;entryX=0.5;entryY=1;entryDx=0;entryDy=0;endArrow=none;endFill=0;" parent="1" source="pOBG8HlV1VO0ge_HTlpR-16" target="pOBG8HlV1VO0ge_HTlpR-17" edge="1">
          <mxGeometry relative="1" as="geometry" />
        </mxCell>
        <mxCell id="9QcQ70fL6jkOLKUowUA8-38" style="rounded=0;orthogonalLoop=1;jettySize=auto;html=1;exitX=0.75;exitY=0;exitDx=0;exitDy=0;entryX=0.5;entryY=1;entryDx=0;entryDy=0;endArrow=none;endFill=0;" parent="1" source="pOBG8HlV1VO0ge_HTlpR-16" target="pOBG8HlV1VO0ge_HTlpR-18" edge="1">
          <mxGeometry relative="1" as="geometry" />
        </mxCell>
        <mxCell id="9QcQ70fL6jkOLKUowUA8-40" style="rounded=0;orthogonalLoop=1;jettySize=auto;html=1;exitX=1;exitY=0.5;exitDx=0;exitDy=0;entryX=0;entryY=0.5;entryDx=0;entryDy=0;endArrow=none;endFill=0;" parent="1" source="pOBG8HlV1VO0ge_HTlpR-16" target="9QcQ70fL6jkOLKUowUA8-39" edge="1">
          <mxGeometry relative="1" as="geometry" />
        </mxCell>
        <mxCell id="9QcQ70fL6jkOLKUowUA8-7" value="Name" style="ellipse;whiteSpace=wrap;html=1;align=center;" parent="1" vertex="1">
          <mxGeometry x="140" y="150" width="100" height="40" as="geometry" />
        </mxCell>
        <mxCell id="9QcQ70fL6jkOLKUowUA8-8" value="Email" style="ellipse;whiteSpace=wrap;html=1;align=center;" parent="1" vertex="1">
          <mxGeometry x="50" y="310" width="100" height="40" as="geometry" />
        </mxCell>
        <mxCell id="9QcQ70fL6jkOLKUowUA8-10" value="Phone Number" style="ellipse;whiteSpace=wrap;html=1;align=center;fontStyle=4;" parent="1" vertex="1">
          <mxGeometry x="40" y="250" width="100" height="40" as="geometry" />
        </mxCell>
        <mxCell id="9QcQ70fL6jkOLKUowUA8-11" value="Date of Birth" style="ellipse;whiteSpace=wrap;html=1;align=center;" parent="1" vertex="1">
          <mxGeometry x="40" y="190" width="100" height="40" as="geometry" />
        </mxCell>
        <mxCell id="9QcQ70fL6jkOLKUowUA8-13" value="Password" style="ellipse;whiteSpace=wrap;html=1;align=center;" parent="1" vertex="1">
          <mxGeometry x="220" y="100" width="100" height="40" as="geometry" />
        </mxCell>
        <mxCell id="9QcQ70fL6jkOLKUowUA8-39" value="&lt;div&gt;Attended Hours Count&lt;/div&gt;" style="ellipse;whiteSpace=wrap;html=1;align=center;dashed=1;" parent="1" vertex="1">
          <mxGeometry x="830" y="220" width="100" height="40" as="geometry" />
        </mxCell>
        <mxCell id="pOBG8HlV1VO0ge_HTlpR-13" value="id" style="ellipse;whiteSpace=wrap;html=1;align=center;fontStyle=4;" vertex="1" parent="1">
          <mxGeometry x="170" y="290" width="70" height="40" as="geometry" />
        </mxCell>
        <mxCell id="pOBG8HlV1VO0ge_HTlpR-15" value="Has" style="shape=rhombus;perimeter=rhombusPerimeter;whiteSpace=wrap;html=1;align=center;" vertex="1" parent="1">
          <mxGeometry x="441" y="207.5" width="120" height="60" as="geometry" />
        </mxCell>
        <mxCell id="pOBG8HlV1VO0ge_HTlpR-16" value="Attendance Record" style="whiteSpace=wrap;html=1;align=center;" vertex="1" parent="1">
          <mxGeometry x="660" y="217.5" width="120" height="40" as="geometry" />
        </mxCell>
        <mxCell id="pOBG8HlV1VO0ge_HTlpR-17" value="Sign In Timestamp" style="ellipse;whiteSpace=wrap;html=1;align=center;" vertex="1" parent="1">
          <mxGeometry x="620" y="100" width="110" height="40" as="geometry" />
        </mxCell>
        <mxCell id="pOBG8HlV1VO0ge_HTlpR-18" value="Sign Out Timestamp" style="ellipse;whiteSpace=wrap;html=1;align=center;" vertex="1" parent="1">
          <mxGeometry x="690" y="140" width="120" height="40" as="geometry" />
        </mxCell>
        <mxCell id="pOBG8HlV1VO0ge_HTlpR-20" style="rounded=0;orthogonalLoop=1;jettySize=auto;html=1;exitX=0.5;exitY=0;exitDx=0;exitDy=0;entryX=0.5;entryY=1;entryDx=0;entryDy=0;endArrow=none;endFill=0;" edge="1" parent="1" source="pOBG8HlV1VO0ge_HTlpR-19" target="pOBG8HlV1VO0ge_HTlpR-16">
          <mxGeometry relative="1" as="geometry" />
        </mxCell>
        <mxCell id="pOBG8HlV1VO0ge_HTlpR-19" value="id" style="ellipse;whiteSpace=wrap;html=1;align=center;fontStyle=4;" vertex="1" parent="1">
          <mxGeometry x="670" y="290" width="100" height="40" as="geometry" />
        </mxCell>
        <mxCell id="pOBG8HlV1VO0ge_HTlpR-22" value="&lt;div&gt;Role&lt;/div&gt;" style="whiteSpace=wrap;html=1;align=center;" vertex="1" parent="1">
          <mxGeometry x="260" y="450" width="100" height="40" as="geometry" />
        </mxCell>
        <mxCell id="pOBG8HlV1VO0ge_HTlpR-23" value="Has" style="shape=rhombus;perimeter=rhombusPerimeter;whiteSpace=wrap;html=1;align=center;" vertex="1" parent="1">
          <mxGeometry x="250" y="320" width="120" height="60" as="geometry" />
        </mxCell>
        <mxCell id="pOBG8HlV1VO0ge_HTlpR-25" value="" style="edgeStyle=orthogonalEdgeStyle;rounded=0;orthogonalLoop=1;jettySize=auto;html=1;endArrow=none;endFill=0;" edge="1" parent="1" source="pOBG8HlV1VO0ge_HTlpR-24" target="pOBG8HlV1VO0ge_HTlpR-22">
          <mxGeometry relative="1" as="geometry" />
        </mxCell>
        <mxCell id="pOBG8HlV1VO0ge_HTlpR-24" value="id" style="ellipse;whiteSpace=wrap;html=1;align=center;fontStyle=4;" vertex="1" parent="1">
          <mxGeometry x="110" y="450" width="100" height="40" as="geometry" />
        </mxCell>
        <mxCell id="pOBG8HlV1VO0ge_HTlpR-27" style="rounded=0;orthogonalLoop=1;jettySize=auto;html=1;exitX=1;exitY=0.5;exitDx=0;exitDy=0;entryX=0;entryY=1;entryDx=0;entryDy=0;endArrow=none;endFill=0;" edge="1" parent="1" source="pOBG8HlV1VO0ge_HTlpR-26" target="pOBG8HlV1VO0ge_HTlpR-22">
          <mxGeometry relative="1" as="geometry" />
        </mxCell>
        <mxCell id="pOBG8HlV1VO0ge_HTlpR-26" value="&lt;div&gt;Name&lt;/div&gt;" style="ellipse;whiteSpace=wrap;html=1;align=center;" vertex="1" parent="1">
          <mxGeometry x="110" y="510" width="100" height="40" as="geometry" />
        </mxCell>
        <mxCell id="pOBG8HlV1VO0ge_HTlpR-28" value="" style="fontSize=12;html=1;endArrow=ERzeroToMany;endFill=1;rounded=0;entryX=0;entryY=0.5;entryDx=0;entryDy=0;exitX=1;exitY=0.5;exitDx=0;exitDy=0;" edge="1" parent="1" source="pOBG8HlV1VO0ge_HTlpR-15" target="pOBG8HlV1VO0ge_HTlpR-16">
          <mxGeometry width="100" height="100" relative="1" as="geometry">
            <mxPoint x="360" y="370" as="sourcePoint" />
            <mxPoint x="460" y="270" as="targetPoint" />
          </mxGeometry>
        </mxCell>
        <mxCell id="pOBG8HlV1VO0ge_HTlpR-29" value="" style="fontSize=12;html=1;endArrow=ERmandOne;rounded=0;entryX=1;entryY=0.5;entryDx=0;entryDy=0;exitX=0;exitY=0.5;exitDx=0;exitDy=0;" edge="1" parent="1" source="pOBG8HlV1VO0ge_HTlpR-15" target="9QcQ70fL6jkOLKUowUA8-1">
          <mxGeometry width="100" height="100" relative="1" as="geometry">
            <mxPoint x="360" y="370" as="sourcePoint" />
            <mxPoint x="460" y="270" as="targetPoint" />
          </mxGeometry>
        </mxCell>
        <mxCell id="pOBG8HlV1VO0ge_HTlpR-30" value="" style="fontSize=12;html=1;endArrow=ERoneToMany;rounded=0;entryX=0.5;entryY=0;entryDx=0;entryDy=0;exitX=0.5;exitY=1;exitDx=0;exitDy=0;" edge="1" parent="1" source="pOBG8HlV1VO0ge_HTlpR-23" target="pOBG8HlV1VO0ge_HTlpR-22">
          <mxGeometry width="100" height="100" relative="1" as="geometry">
            <mxPoint x="360" y="370" as="sourcePoint" />
            <mxPoint x="460" y="270" as="targetPoint" />
          </mxGeometry>
        </mxCell>
        <mxCell id="pOBG8HlV1VO0ge_HTlpR-31" value="" style="fontSize=12;html=1;endArrow=ERzeroToMany;endFill=1;rounded=0;entryX=0.5;entryY=1;entryDx=0;entryDy=0;exitX=0.5;exitY=0;exitDx=0;exitDy=0;" edge="1" parent="1" source="pOBG8HlV1VO0ge_HTlpR-23" target="9QcQ70fL6jkOLKUowUA8-1">
          <mxGeometry width="100" height="100" relative="1" as="geometry">
            <mxPoint x="360" y="370" as="sourcePoint" />
            <mxPoint x="460" y="270" as="targetPoint" />
          </mxGeometry>
        </mxCell>
      </root>
    </mxGraphModel>
  </diagram>
</mxfile>
